<svg width="16" height="16" viewBox="0 0 16 16" fill="none" xmlns="http://www.w3.org/2000/svg">
<path d="M3.9502 10.4364L6.57362 8.96535L6.61686 8.83649L6.57362 8.76473H6.44389L6.00426 8.73802L4.50516 8.6979L3.20785 8.64436L1.9466 8.57752L1.62948 8.51063L1.33398 8.11612L1.36281 7.92223L1.62948 7.7417L2.01146 7.77509L2.8547 7.8353L4.12317 7.92223L5.03849 7.97571L6.40065 8.11612H6.61686L6.6457 8.02919L6.57362 7.97571L6.51596 7.92223L5.20426 7.03287L3.78444 6.09674L3.04209 5.55511L2.64569 5.28096L2.44389 5.02686L2.35741 4.46517L2.71777 4.06397L3.20785 4.0974L3.33038 4.13084L3.82768 4.51198L4.88714 5.33445L6.27092 6.35083L6.47272 6.518L6.55398 6.46316L6.56642 6.42439L6.47272 6.27059L5.72318 4.91319L4.92317 3.52903L4.56281 2.95398L4.46912 2.61295C4.43282 2.46984 4.41146 2.35144 4.41146 2.20506L4.82227 1.64338L5.0529 1.56982L5.60785 1.64338L5.83849 1.84398L6.18443 2.63301L6.73942 3.87006L7.60427 5.55511L7.85651 6.05662L7.99346 6.518L8.04389 6.65842H8.13036V6.57818L8.20246 5.62867L8.33217 4.46517L8.46188 2.96735L8.50518 2.54609L8.71418 2.0379L9.13217 1.76374L9.45651 1.91753L9.72317 2.29868L9.68713 2.54609L9.52855 3.57584L9.21865 5.18734L9.01689 6.27059H9.13217L9.26913 6.13017L9.81689 5.408L10.7322 4.25789L11.1358 3.80319L11.6115 3.30169L11.9142 3.06096H12.4907L12.9087 3.68952L12.7214 4.33813L12.1304 5.08704L11.6403 5.72228L10.9376 6.66374L10.5016 7.4207L10.5407 7.48318L10.6457 7.47418L12.2313 7.13315L13.0889 6.97939L14.1124 6.80553L14.5736 7.01952L14.6241 7.24017L14.4439 7.68816L13.3484 7.95562L12.0655 8.2164L10.1552 8.66615L10.134 8.68318L10.1589 8.72019L11.0205 8.79818L11.388 8.81821H12.2889L13.9682 8.94526L14.4078 9.23281L14.6673 9.5872L14.6241 9.86134L13.9466 10.2024L13.0385 9.98839L10.9124 9.48024L10.1844 9.29971H10.0836V9.35987L10.6889 9.955L11.8061 10.958L13.197 12.2552L13.2691 12.5762L13.0889 12.8303L12.9016 12.8035L11.6763 11.8807L11.2007 11.4662L10.134 10.5635H10.0619V10.6571L10.3069 11.0182L11.6115 12.9774L11.6763 13.5792L11.5827 13.7731L11.2439 13.8935L10.8763 13.8266L10.1052 12.75L9.31955 11.5464L8.68531 10.4631L8.60874 10.5115L8.23127 14.5421L8.05832 14.7493L7.6547 14.9032L7.31599 14.6491L7.1358 14.2345L7.31599 13.412L7.53217 12.3422L7.70518 11.4929L7.8637 10.4364L7.96053 10.0835L7.95198 10.0599L7.87462 10.0729L7.07813 11.1653L5.86732 12.8035L4.90876 13.8266L4.67813 13.9202L4.28173 13.7129L4.31777 13.3452L4.54119 13.0175L5.86732 11.3324L6.66732 10.2826L7.18294 9.68001L7.1779 9.59286L7.14943 9.59043L3.62587 11.8874L2.99885 11.9677L2.72497 11.7136L2.76101 11.299L2.89074 11.1653L3.9502 10.4364Z" fill="#656F81"/>
</svg>
