<svg preserveAspectRatio="none" overflow="visible" style="display: block;" width="48" height="48" viewBox="0 0 48 48" fill="none" xmlns="http://www.w3.org/2000/svg">
<g id="edit-2">
<path id="Vector" d="M34.74 20.34L37.42 17.5C40.26 14.5 41.54 11.08 37.12 6.9C32.7 2.74 29.36 4.2 26.52 7.2L10.1 24.58C9.48 25.24 8.88 26.54 8.76 27.44L8.02 33.92C7.76 36.26 9.44 37.86 11.76 37.46L18.2 36.36C19.1 36.2 20.36 35.54 20.98 34.86L28.88 26.5" stroke="#8B04FF" stroke-width="2" stroke-miterlimit="10" stroke-linecap="round" stroke-linejoin="round"/>
<path id="Vector_2" d="M23.78 10.1C24.64 15.62 29.12 19.84 34.68 20.4" stroke="#8B04FF" stroke-width="2" stroke-miterlimit="10" stroke-linecap="round" stroke-linejoin="round"/>
<path id="Vector_3" d="M6 44H28" stroke="#8B04FF" stroke-width="2" stroke-miterlimit="10" stroke-linecap="round" stroke-linejoin="round"/>
<path id="Vector_4" d="M36 44H42" stroke="#8B04FF" stroke-width="2" stroke-miterlimit="10" stroke-linecap="round" stroke-linejoin="round"/>
<path id="Vector_5" opacity="0" d="M47.5713 0.428711V47.5713H0.428711V0.428711H47.5713Z" stroke="#8B04FF" stroke-width="0.857143"/>
</g>
</svg>
