<svg preserveAspectRatio="xMidYMid meet" width="32" height="32" viewBox="0 0 20 18.3867" fill="none" xmlns="http://www.w3.org/2000/svg">
<path id="vector" d="M1.83319 18.3867C1.32502 18.3867 0.892396 18.2083 0.53533 17.8514C0.178443 17.4944 0 17.0609 0 16.5511V5.38261C0 4.87282 0.178443 4.43948 0.53533 4.0826C0.892396 3.72553 1.32582 3.547 1.83561 3.547H6.36615V1.83426C6.36615 1.3243 6.5446 0.891052 6.90148 0.534524C7.25855 0.178175 7.69126 0 8.19961 0H11.8004C12.3087 0 12.7414 0.178533 13.0985 0.535599C13.4554 0.892485 13.6338 1.32582 13.6338 1.83561V3.547H18.1644C18.6742 3.547 19.1076 3.72553 19.4647 4.0826C19.8216 4.43948 20 4.87282 20 5.38261V16.5511C20 17.0609 19.8216 17.4944 19.4647 17.8514C19.1076 18.2083 18.675 18.3867 18.1668 18.3867H1.83319ZM1.83561 16.8821H18.1644C18.2472 16.8821 18.3231 16.8477 18.3921 16.7789C18.461 16.7099 18.4954 16.634 18.4954 16.5511V5.38261C18.4954 5.2998 18.461 5.22397 18.3921 5.15514C18.3231 5.08613 18.2472 5.05162 18.1644 5.05162H1.83561C1.7528 5.05162 1.67688 5.08613 1.60787 5.15514C1.53904 5.22397 1.50462 5.2998 1.50462 5.38261V16.5511C1.50462 16.634 1.53904 16.7099 1.60787 16.7789C1.67688 16.8477 1.7528 16.8821 1.83561 16.8821ZM7.87078 3.547H12.1292V1.83561C12.1292 1.7528 12.0948 1.67697 12.026 1.60814C11.957 1.53913 11.8811 1.50462 11.7982 1.50462H8.20176C8.11895 1.50462 8.04304 1.53913 7.97403 1.60814C7.9052 1.67697 7.87078 1.7528 7.87078 1.83561V3.547Z" fill="#1F2226"/>
</svg>
