<svg preserveAspectRatio="none" overflow="visible" style="display: block;" width="24" height="24" viewBox="0 0 24 24" fill="none" xmlns="http://www.w3.org/2000/svg">
<g id="bale">
<path id="Vector" d="M11.5929 20.491C10.8841 20.4558 10.1823 20.3335 9.50329 20.1269C9.42472 20.0974 9.34535 20.07 9.26529 20.0447C6.99651 19.2982 5.07268 17.499 4.14689 15.2578C3.76728 14.3433 3.5515 13.3692 3.50939 12.3799C3.50373 12.2673 3.50089 10.7578 3.50019 8.2744C3.50019 4.00317 3.49664 4.30562 3.54977 4.13987C3.6631 3.77933 3.97689 3.53567 4.36718 3.50379C4.66539 3.47971 4.86302 3.56612 5.50264 3.99892C5.90072 4.26808 6.29526 4.55141 6.7748 4.91195C6.99793 5.07983 7.02484 5.09683 7.04113 5.08691L7.28905 4.924C7.69988 4.65412 8.0753 4.44446 8.49321 4.25462C9.1082 3.97651 9.75433 3.77318 10.4177 3.649C10.8943 3.55763 11.3782 3.5102 11.8635 3.50733C12.671 3.496 13.3347 3.57179 14.0961 3.76233C16.6107 4.39133 18.7272 6.17845 19.7826 8.56482C20.1311 9.35319 20.3811 10.2861 20.452 11.0596C20.4753 11.3188 20.4796 11.3641 20.4895 11.4924C20.4952 11.5667 20.5001 11.7799 20.5001 11.9662C20.5001 12.5208 20.4541 13.0783 20.3804 13.4282C20.3681 13.4893 20.3572 13.5507 20.3478 13.6124C20.3082 13.8801 20.1963 14.3115 20.0652 14.6997C19.92 15.1339 19.8053 15.4073 19.5807 15.8564C19.1145 16.7739 18.4849 17.5986 17.7228 18.2902C17.4111 18.5707 17.1356 18.7896 16.8303 19.0007C16.372 19.3159 15.9045 19.5758 15.386 19.8039C14.961 19.9916 14.366 20.1857 13.8978 20.2898C13.6224 20.3524 13.3439 20.4001 13.0634 20.4329C12.5757 20.4938 12.0838 20.5132 11.5929 20.491ZM11.1608 16.2977C11.369 16.2552 11.641 16.1496 11.7728 16.059C11.8748 15.9888 12.076 15.7926 13.2348 14.6331C13.6481 14.216 14.0646 13.8021 14.4843 13.3914C14.4963 13.3914 15.6792 12.2085 15.6792 12.195C15.6792 12.1809 16.8409 11.0277 16.8558 11.0277C16.8629 11.0277 16.9004 10.9944 16.9394 10.9526C17.2701 10.602 17.4224 10.2747 17.4465 9.85682C17.4649 9.55011 17.404 9.21294 17.2928 9.00965C17.134 8.70689 16.8925 8.45539 16.5965 8.28432C16.3975 8.16886 16.2339 8.11928 15.9675 8.09307C15.7508 8.07111 15.4802 8.09307 15.296 8.1462C15.1239 8.19578 14.8689 8.34028 14.6918 8.4869C14.6621 8.51169 13.7859 9.38294 12.7453 10.4228L10.8534 12.314L10.0792 11.5419C9.65417 11.1169 9.28584 10.7529 9.26105 10.733C8.98882 10.5197 8.65843 10.3938 8.3133 10.3718C8.02713 10.3626 7.66872 10.4355 7.4463 10.5489C7.27333 10.6496 7.11605 10.7751 6.97951 10.9214C6.90301 11.0064 6.77622 11.1743 6.77409 11.1941C6.77197 11.2154 6.76772 11.2253 6.72805 11.3075C6.63171 11.5093 6.57772 11.7286 6.56939 11.9521C6.56159 12.1143 6.5623 12.1398 6.58284 12.2999C6.61472 12.5499 6.75284 12.8531 6.94409 13.0896C6.97951 13.1343 7.63117 13.7923 8.39192 14.5516C9.45938 15.6177 9.79442 15.947 9.861 15.9959C10.0926 16.1659 10.3448 16.2708 10.6409 16.3189C10.7698 16.3402 10.995 16.3303 11.1608 16.2977Z" fill="#8B94A4"/>
</g>
</svg>
