<svg preserveAspectRatio="none" overflow="visible" style="display: block;" width="38.325" height="38.325" viewBox="0 0 38.325 38.325" fill="none" xmlns="http://www.w3.org/2000/svg">
<g id="info-circle">
<path id="vector" d="M19.1625 36.3289C9.69623 36.3289 1.99609 28.6288 1.99609 19.1625C1.99609 9.69623 9.69623 1.99609 19.1625 1.99609C28.6288 1.99609 36.3289 9.69623 36.3289 19.1625C36.3289 28.6288 28.6288 36.3289 19.1625 36.3289ZM19.1625 4.39141C11.0168 4.39141 4.39141 11.0168 4.39141 19.1625C4.39141 27.3082 11.0168 33.9336 19.1625 33.9336C27.3082 33.9336 33.9336 27.3082 33.9336 19.1625C33.9336 11.0168 27.3082 4.39141 19.1625 4.39141ZM20.3602 26.3484V19.0491C20.3602 18.3879 19.8236 17.8514 19.1625 17.8514C18.5014 17.8514 17.9648 18.3879 17.9648 19.0491V26.3484C17.9648 27.0095 18.5014 27.5461 19.1625 27.5461C19.8236 27.5461 20.3602 27.0095 20.3602 26.3484ZM20.7913 13.5734C20.7913 12.692 20.0775 11.9766 19.1945 11.9766H19.1785C18.297 11.9766 17.5894 12.692 17.5894 13.5734C17.5894 14.4549 18.313 15.1703 19.1945 15.1703C20.0759 15.1703 20.7913 14.4549 20.7913 13.5734Z" fill="#383E48"/>
</g>
</svg>
